<?xml version="1.0" encoding="iso-8859-1"?>
<!-- Generator: Adobe Illustrator 19.0.0, SVG Export Plug-In . SVG Version: 6.00 Build 0)  -->
<svg version="1.1" id="Capa_1" xmlns="http://www.w3.org/2000/svg" xmlns:xlink="http://www.w3.org/1999/xlink" x="0px" y="0px"
	 viewBox="0 0 464 464" style="enable-background:new 0 0 464 464;" xml:space="preserve">
<rect y="112" style="fill:#50BB65;" width="464" height="352"/>
<g>
	<rect x="200" y="392" style="fill:#006837;" width="16" height="16"/>
	<rect x="200" y="280" style="fill:#006837;" width="16" height="16"/>
	<rect x="88" y="152" style="fill:#006837;" width="16" height="16"/>
</g>
<polygon style="fill:#E6E6E6;" points="464,320 312,320 312,232 464,232 464,184 264,184 264,320 176,320 176,112 128,112 128,192 
	0,192 0,240 128,240 128,288 128,464 176,464 176,368 328,368 464,368 "/>
<path style="fill:#DA4836;" d="M288,56c0,48-56,96-56,96s-56-48-56-96c0-30.928,25.072-56,56-56S288,25.072,288,56z"/>
<circle style="fill:#E6E6E6;" cx="232" cy="56" r="24"/>
<path style="fill:#DA4836;" d="M144,328c0,48-56,96-56,96s-56-48-56-96c0-30.928,25.072-56,56-56S144,297.072,144,328z"/>
<circle style="fill:#E6E6E6;" cx="88" cy="328" r="24"/>
<path style="fill:#DA4836;" d="M424,320c0,48-56,96-56,96s-56-48-56-96c0-30.928,25.072-56,56-56S424,289.072,424,320z"/>
<circle style="fill:#E6E6E6;" cx="368" cy="320" r="24"/>
<g>
</g>
<g>
</g>
<g>
</g>
<g>
</g>
<g>
</g>
<g>
</g>
<g>
</g>
<g>
</g>
<g>
</g>
<g>
</g>
<g>
</g>
<g>
</g>
<g>
</g>
<g>
</g>
<g>
</g>
</svg>
